<svg id="Layer_1" data-name="Layer 1" xmlns="http://www.w3.org/2000/svg" viewBox="0 0 100 100"><defs><style>.cls-1{fill:#df6726;}.cls-2{fill:#ffaf84;}</style></defs><path class="cls-1" d="M82.45,55.28,56.9,80.83a8.12,8.12,0,0,1-11.48,0L19.87,55.28q-.3-.3-.57-.63A8.11,8.11,0,0,0,19.43,66L45,91.54a8.12,8.12,0,0,0,11.48,0L82,66a8.13,8.13,0,0,0,.57-10.85A1.79,1.79,0,0,1,82.45,55.28Z"/><path class="cls-2" d="M82.45,43.8,76.2,37.55A13.24,13.24,0,0,1,51.5,30.9c0-2.78,1.71-7.13,5.07-12.95a8.1,8.1,0,0,0-6.35-2,8.26,8.26,0,0,1-7.61,11.77,8.33,8.33,0,0,1-5-1.66L19.87,43.8a8.12,8.12,0,0,0-.57,10.85q.27.33.57.63L45.42,80.83a8.12,8.12,0,0,0,11.48,0L82.45,55.28a1.79,1.79,0,0,0,.13-.14A8.12,8.12,0,0,0,82.45,43.8ZM43.74,62.56A11.27,11.27,0,0,1,32.48,51.3c0-1.13,0-4.56,7-15.28A5.11,5.11,0,0,1,48,36c7,10.72,7,14.15,7,15.28A11.27,11.27,0,0,1,43.74,62.56Z"/><path class="cls-1" d="M52,51.3a8.26,8.26,0,0,1-11.47,7.61,8,8,0,0,1-1.41-.76,8.26,8.26,0,0,1-3.64-6.85,5,5,0,0,1,.05-.64,13.22,13.22,0,0,1,1-3.19c.12-.29.25-.6.39-.91A76.66,76.66,0,0,1,42,37.65a2,2,0,0,1,.79-.72,2.09,2.09,0,0,1,1-.24,2.11,2.11,0,0,1,1.78,1C47.94,41.39,52,48.11,52,51.3Z"/><path class="cls-1" d="M75,30.9a10.27,10.27,0,0,1-3,7.25c-.23.23-.48.45-.73.66A10.07,10.07,0,0,1,66.82,41a10.84,10.84,0,0,1-2.07.2A10.25,10.25,0,0,1,54.5,30.9c0-4,5-12.3,8-16.94a2.53,2.53,0,0,1,1-.89,2.63,2.63,0,0,1,2.44,0A2.53,2.53,0,0,1,67,14l.59.91c.61,1,1.27,2,1.94,3.14.45.75.9,1.52,1.34,2.3l.66,1.19c.64,1.18,1.25,2.38,1.77,3.52.35.77.66,1.51.92,2.22A11.29,11.29,0,0,1,75,30.9Z"/><path class="cls-1" d="M48,19.33a5.39,5.39,0,0,1-10.77,0A11.37,11.37,0,0,1,38.75,15q.15-.31.33-.63c.22-.41.46-.83.69-1.23.59-1,1.19-2,1.68-2.73a1.55,1.55,0,0,1,.24-.27,1.28,1.28,0,0,1,.37-.23,1.3,1.3,0,0,1,.55-.12,1.47,1.47,0,0,1,.65.15,1.79,1.79,0,0,1,.28.2,2,2,0,0,1,.23.27l.47.74.51.81c.23.38.47.77.7,1.18C46.75,15.37,48,17.89,48,19.33Z"/></svg>