<svg id="Layer_1" data-name="Layer 1" xmlns="http://www.w3.org/2000/svg" viewBox="0 0 100 100"><defs><style>.cls-1{fill:none;}.cls-2{fill:#df6726;}.cls-3{fill:#ffaf84;}</style></defs><path class="cls-1" d="M7.53,44.66A3,3,0,0,1,7.6,44,3,3,0,0,0,7.53,44.66Z"/><path class="cls-1" d="M16.67,34.26a3.5,3.5,0,0,0-.25,1.31A3.5,3.5,0,0,1,16.67,34.26Z"/><path class="cls-1" d="M8.56,42.19a3.41,3.41,0,0,1,1.16-.77A3.41,3.41,0,0,0,8.56,42.19Z"/><path class="cls-1" d="M38,17.54a14.56,14.56,0,0,1,3.28,5.07h0A14.56,14.56,0,0,0,38,17.54,3.51,3.51,0,0,0,32,20a3.51,3.51,0,0,1,6-2.48Z"/><path class="cls-1" d="M35.19,27.8a7.07,7.07,0,0,1-.06.91h0A7.07,7.07,0,0,0,35.19,27.8Z"/><path class="cls-1" d="M12.35,41.42a3.51,3.51,0,0,1,1.16.77A3.51,3.51,0,0,0,12.35,41.42Z"/><path class="cls-1" d="M46.89,8.81a27,27,0,0,1,5.38,7.67h0a27,27,0,0,0-5.38-7.67,3.5,3.5,0,0,0-6,2.47,3.5,3.5,0,0,1,6-2.47Z"/><path class="cls-1" d="M12.35,41.42a3.46,3.46,0,0,0-2.63,0A3.52,3.52,0,0,1,12.35,41.42Z"/><path class="cls-2" d="M81.7,66.46,56.15,92a8.12,8.12,0,0,1-11.48,0L19.12,66.46a8.11,8.11,0,0,1-1.16-10,29.59,29.59,0,0,0,3.19.89l24,24a8.12,8.12,0,0,0,11.48,0L82.14,55.75a1.79,1.79,0,0,0,.13-.14A8.12,8.12,0,0,1,81.7,66.46Z"/><path class="cls-3" d="M54.82,28h0a27.1,27.1,0,0,0-2.55-11.49h0A27.1,27.1,0,0,1,54.82,28Z"/><path class="cls-3" d="M33.51,32.53a7.29,7.29,0,0,0,1.13-1.91A7.29,7.29,0,0,1,33.51,32.53Z"/><path class="cls-3" d="M82.27,55.61a1.79,1.79,0,0,1-.13.14L56.59,81.3a8.12,8.12,0,0,1-11.48,0l-24-24a30.55,30.55,0,0,0,6.57.72A30.06,30.06,0,0,0,57.82,28a30.39,30.39,0,0,0-1.54-9.53l.31.28L82.14,44.27A8.11,8.11,0,0,1,82.27,55.61Z"/><path class="cls-3" d="M33,33.1a6.91,6.91,0,0,0,.51-.57,6.91,6.91,0,0,1-.51.57,7.44,7.44,0,0,1-4.4,2.13h0A7.44,7.44,0,0,0,33,33.1Z"/><path class="cls-3" d="M35.13,28.71a7.34,7.34,0,0,1-.25,1.22,7.34,7.34,0,0,0,.25-1.22Z"/><path class="cls-3" d="M42.2,27.8h0a14.37,14.37,0,0,0-1-5.19h0A14.37,14.37,0,0,1,42.2,27.8Z"/><path class="cls-3" d="M47.82,28a20.06,20.06,0,0,1-18,20,20.06,20.06,0,0,0,18-20Z"/><path class="cls-3" d="M27.72,48.07a20.11,20.11,0,0,1-2-.11A20.11,20.11,0,0,0,27.72,48.07Z"/><path class="cls-2" d="M42.2,27.8a14.4,14.4,0,0,1-2.43,8A15.82,15.82,0,0,1,38,38.05a14.52,14.52,0,0,1-20.51,0,3.51,3.51,0,0,1,2.48-6,3.05,3.05,0,0,1,.67.07,1.77,1.77,0,0,1,.31.08,3.46,3.46,0,0,1,1.49.88,7.36,7.36,0,0,0,3.87,2c.24.05.47.08.7.11s.49,0,.74,0a6.8,6.8,0,0,0,.9-.06A7.44,7.44,0,0,0,33,33.1a6.91,6.91,0,0,0,.51-.57,7.29,7.29,0,0,0,1.13-1.91q.13-.35.24-.69a7.34,7.34,0,0,0,.25-1.22,7.07,7.07,0,0,0,.06-.91q0-.36,0-.72c0-.24-.06-.48-.11-.72A6.91,6.91,0,0,0,34.64,25a5.65,5.65,0,0,0-.31-.66A7.27,7.27,0,0,0,33,22.49a3.5,3.5,0,0,1,5-4.95,14.56,14.56,0,0,1,3.28,5.07A14.37,14.37,0,0,1,42.2,27.8Z"/><path class="cls-2" d="M54.82,28A27.11,27.11,0,0,1,8.56,47.14a3.51,3.51,0,0,1-1-2.48A3,3,0,0,1,7.6,44a3.48,3.48,0,0,1,1-1.81,3.41,3.41,0,0,1,1.16-.77,3.5,3.5,0,0,1,3.79.77A20.1,20.1,0,0,0,41.94,13.76a3.51,3.51,0,0,1,0-4.95,3.49,3.49,0,0,1,5,0A27.05,27.05,0,0,1,54.82,28Z"/></svg>