<svg id="Layer_1" data-name="Layer 1" xmlns="http://www.w3.org/2000/svg" viewBox="0 0 100 100"><defs><style>.cls-1{fill:#df6726;}.cls-2{fill:#ffaf84;}.cls-3{fill:#fff;}</style></defs><path class="cls-1" d="M81.14,55.75,55.59,81.3a8.12,8.12,0,0,1-11.48,0L18.56,55.75q-.3-.3-.57-.63a8.12,8.12,0,0,0,.13,11.34L43.67,92a8.12,8.12,0,0,0,11.48,0L80.7,66.46a8.12,8.12,0,0,0,.57-10.85A1.79,1.79,0,0,1,81.14,55.75Z"/><path class="cls-2" d="M81.27,55.61a1.79,1.79,0,0,1-.13.14L55.59,81.3a8.12,8.12,0,0,1-11.48,0L18.56,55.75q-.3-.3-.57-.63a8.13,8.13,0,0,1,.57-10.85L44.11,18.72a8.18,8.18,0,0,1,3-1.89,6.83,6.83,0,0,0,0,2c.38,2.38.85,5.36,4.92,6.78a7.43,7.43,0,0,0,2.41.4,7.92,7.92,0,0,0,5.84-2.62l2,2c-.06.09-.13.17-.2.26C61,27.05,59.15,28.07,57,29.24c-3.07,1.7-6.89,3.81-9.81,7.92-3.62,5.08-4.8,10.7-3.35,15.83a14.79,14.79,0,0,0,8.27,9.6,15.51,15.51,0,0,0,6.07,1.21,20.41,20.41,0,0,0,13.6-5.49,31.19,31.19,0,0,0,8.5-14.87l.83.83A8.11,8.11,0,0,1,81.27,55.61Z"/><path class="cls-2" d="M53.38,22.9s-.06,0-.08,0h0l.09,0,.08,0Z"/><path class="cls-2" d="M53.92,23a3.11,3.11,0,0,1-.44-.08h0l.4.07h.17l.45,0h-.09A4.41,4.41,0,0,1,53.92,23Z"/><path class="cls-1" d="M76,27.65c-.3-.75-.64-1.48-1-2.19-.17-.35-.36-.7-.54-1.05-.32-.57-.64-1.14-1-1.68-.54-.88-1.11-1.72-1.69-2.5s-1.1-1.46-1.66-2.12c-3-3.54-5.87-5.64-6.67-5.64a.25.25,0,0,0-.13,0c-.76.46,4.31,5.7,2.73,11.83a8.33,8.33,0,0,1-1.62,3.23c-3.36,4.18-10.27,5-14.77,11.33C43,48.24,47.14,57.23,53.31,59.83a12.55,12.55,0,0,0,4.9,1,16.21,16.21,0,0,0,5.57-1c.42-.15.84-.32,1.23-.5l.8-.38.33-.17a15.19,15.19,0,0,0,3.55-2.52,27.65,27.65,0,0,0,8-15.32c.05-.35.11-.7.14-1.07A25.36,25.36,0,0,0,76,27.65Zm-17.24,32c-3.36-.18-4.41-1.57-6.21-4.3-1.14-1.73-1.54-5.12-.35-8.53q.16-.47.36-.9l.06-.12a6,6,0,0,1,.37-.71,2.39,2.39,0,0,1,.13-.21h0a5151053507009.77,5151053507009.77,0,0,0,.18-.3.77.77,0,0,1,.09-.13,3.9,3.9,0,0,1,.25-.36l.06-.09a7.18,7.18,0,0,1,.54-.67c.11-.13.22-.25.34-.37a.73.73,0,0,1,.17-.18c.13-.14.26-.27.4-.4a13,13,0,0,1,1.22-1L56.9,41c.22-.15.44-.3.66-.43l.44-.27.44-.24c.37-.2.73-.38,1.09-.54l.62-.27a3.47,3.47,0,0,1,.41-.16l.26-.1.11,0h0a.29.29,0,0,1,.1,0,1.66,1.66,0,0,1,.29-.1,6,6,0,0,1,.7-.21l.32-.08.17,0,.15,0a2.93,2.93,0,0,1,1.1-.09.11.11,0,0,1,.08,0s0,0,0,0c.24.35-3,1.51-3.51,4.39-.62,3.45,3.4,5.12,4.27,9.45C65.7,57.52,61.93,59.86,58.74,59.69Z"/><path class="cls-3" d="M64.64,52.25c-.87-4.33-4.89-6-4.27-9.45.51-2.88,3.75-4,3.51-4.39,0,0,0,0,0,0l-.08,0a2.93,2.93,0,0,0-1.1.09l-.15,0-.17,0-.32.08a6,6,0,0,0-.7.21,1.66,1.66,0,0,0-.29.1l-.1,0-.11,0-.26.1-.41.16-.62.27c-.36.16-.72.34-1.09.54l-.44.24-.44.27c-.22.13-.44.28-.66.43l-.54.39a13,13,0,0,0-1.22,1c-.14.13-.27.26-.4.4a.73.73,0,0,0-.17.18c-.12.12-.23.24-.34.37a7.18,7.18,0,0,0-.54.67l-.06.09-.25.36a.77.77,0,0,0-.09.13s-.06.1-.09.15a.6.6,0,0,0-.09.15h0a2.39,2.39,0,0,0-.13.21,6,6,0,0,0-.37.71l-.06.12q-.2.43-.36.9c-1.19,3.41-.79,6.8.35,8.53,1.8,2.73,2.85,4.12,6.21,4.3C61.93,59.86,65.7,57.52,64.64,52.25Zm-3.35,3.5a2.94,2.94,0,0,1-2.23,1H58.9c-1.88-.1-2.2-.43-3.87-2.95-.56-.85-.94-3.24,0-5.9a8.23,8.23,0,0,1,2.35-3.41,10.56,10.56,0,0,0,2.43,4.88,8.75,8.75,0,0,1,1.91,3.53A3.42,3.42,0,0,1,61.29,55.75Zm3.35-3.5c-.87-4.33-4.89-6-4.27-9.45.51-2.88,3.75-4,3.51-4.39,0,0,0,0,0,0l-.08,0a2.93,2.93,0,0,0-1.1.09l-.15,0-.17,0-.32.08a6,6,0,0,0-.7.21,1.66,1.66,0,0,0-.29.1l-.1,0-.11,0-.26.1-.41.16-.62.27c-.36.16-.72.34-1.09.54l-.44.24-.44.27c-.22.13-.44.28-.66.43l-.54.39a13,13,0,0,0-1.22,1c-.14.13-.27.26-.4.4a.73.73,0,0,0-.17.18c-.12.12-.23.24-.34.37a7.18,7.18,0,0,0-.54.67l-.06.09-.25.36a.77.77,0,0,0-.09.13s-.06.1-.09.15a.6.6,0,0,0-.09.15h0a2.39,2.39,0,0,0-.13.21,6,6,0,0,0-.37.71l-.06.12q-.2.43-.36.9c-1.19,3.41-.79,6.8.35,8.53,1.8,2.73,2.85,4.12,6.21,4.3C61.93,59.86,65.7,57.52,64.64,52.25Zm-3.35,3.5a2.94,2.94,0,0,1-2.23,1H58.9c-1.88-.1-2.2-.43-3.87-2.95-.56-.85-.94-3.24,0-5.9a8.23,8.23,0,0,1,2.35-3.41,10.56,10.56,0,0,0,2.43,4.88,8.75,8.75,0,0,1,1.91,3.53A3.42,3.42,0,0,1,61.29,55.75Zm3.35-3.5c-.87-4.33-4.89-6-4.27-9.45.51-2.88,3.75-4,3.51-4.39,0,0,0,0,0,0l-.08,0a2.93,2.93,0,0,0-1.1.09l-.15,0-.17,0-.32.08a6,6,0,0,0-.7.21,1.66,1.66,0,0,0-.29.1l-.1,0-.11,0-.26.1-.41.16-.62.27c-.36.16-.72.34-1.09.54l-.44.24-.44.27c-.22.13-.44.28-.66.43l-.54.39a13,13,0,0,0-1.22,1c-.14.13-.27.26-.4.4a.73.73,0,0,0-.17.18c-.12.12-.23.24-.34.37a7.18,7.18,0,0,0-.54.67l-.06.09-.25.36a.77.77,0,0,0-.09.13s-.06.1-.09.15a.6.6,0,0,0-.09.15h0a2.39,2.39,0,0,0-.13.21,6,6,0,0,0-.37.71l-.06.12q-.2.43-.36.9c-1.19,3.41-.79,6.8.35,8.53,1.8,2.73,2.85,4.12,6.21,4.3C61.93,59.86,65.7,57.52,64.64,52.25Zm-3.35,3.5a2.94,2.94,0,0,1-2.23,1H58.9c-1.88-.1-2.2-.43-3.87-2.95-.56-.85-.94-3.24,0-5.9a8.23,8.23,0,0,1,2.35-3.41,10.56,10.56,0,0,0,2.43,4.88,8.75,8.75,0,0,1,1.91,3.53A3.42,3.42,0,0,1,61.29,55.75Zm3.35-3.5c-.87-4.33-4.89-6-4.27-9.45.51-2.88,3.75-4,3.51-4.39,0,0,0,0,0,0l-.08,0a2.93,2.93,0,0,0-1.1.09l-.15,0-.17,0-.32.08a6,6,0,0,0-.7.21,1.66,1.66,0,0,0-.29.1l-.1,0-.11,0-.26.1-.41.16-.62.27c-.36.16-.72.34-1.09.54l-.44.24-.44.27c-.22.13-.44.28-.66.43l-.54.39a13,13,0,0,0-1.22,1c-.14.13-.27.26-.4.4a.73.73,0,0,0-.17.18c-.12.12-.23.24-.34.37a7.18,7.18,0,0,0-.54.67l-.06.09-.25.36a.77.77,0,0,0-.09.13s-.06.1-.09.15a.6.6,0,0,0-.09.15h0a2.39,2.39,0,0,0-.13.21,6,6,0,0,0-.37.71l-.06.12q-.2.43-.36.9c-1.19,3.41-.79,6.8.35,8.53,1.8,2.73,2.85,4.12,6.21,4.3C61.93,59.86,65.7,57.52,64.64,52.25Zm-3.35,3.5a2.94,2.94,0,0,1-2.23,1H58.9c-1.88-.1-2.2-.43-3.87-2.95-.56-.85-.94-3.24,0-5.9a8.23,8.23,0,0,1,2.35-3.41,10.56,10.56,0,0,0,2.43,4.88,8.75,8.75,0,0,1,1.91,3.53A3.42,3.42,0,0,1,61.29,55.75Zm3.35-3.5c-.87-4.33-4.89-6-4.27-9.45.51-2.88,3.75-4,3.51-4.39,0,0,0,0,0,0l-.08,0a2.93,2.93,0,0,0-1.1.09l-.15,0-.17,0-.32.08a6,6,0,0,0-.7.21,1.66,1.66,0,0,0-.29.1l-.1,0-.11,0-.26.1-.41.16-.62.27c-.36.16-.72.34-1.09.54l-.44.24-.44.27c-.22.13-.44.28-.66.43l-.54.39a13,13,0,0,0-1.22,1c-.14.13-.27.26-.4.4a.73.73,0,0,0-.17.18c-.12.12-.23.24-.34.37a7.18,7.18,0,0,0-.54.67l-.06.09-.25.36a.77.77,0,0,0-.09.13s-.06.1-.09.15a.6.6,0,0,0-.09.15h0a2.39,2.39,0,0,0-.13.21,6,6,0,0,0-.37.71l-.06.12q-.2.43-.36.9c-1.19,3.41-.79,6.8.35,8.53,1.8,2.73,2.85,4.12,6.21,4.3C61.93,59.86,65.7,57.52,64.64,52.25Zm-3.35,3.5a2.94,2.94,0,0,1-2.23,1H58.9c-1.88-.1-2.2-.43-3.87-2.95-.56-.85-.94-3.24,0-5.9a8.23,8.23,0,0,1,2.35-3.41,10.56,10.56,0,0,0,2.43,4.88,8.75,8.75,0,0,1,1.91,3.53A3.42,3.42,0,0,1,61.29,55.75Zm3.35-3.5c-.87-4.33-4.89-6-4.27-9.45.51-2.88,3.75-4,3.51-4.39,0,0,0,0,0,0l-.08,0a2.93,2.93,0,0,0-1.1.09l-.15,0-.17,0-.32.08a6,6,0,0,0-.7.21,1.66,1.66,0,0,0-.29.1l-.1,0-.11,0-.26.1-.41.16-.62.27c-.36.16-.72.34-1.09.54l-.44.24-.44.27c-.22.13-.44.28-.66.43l-.54.39a13,13,0,0,0-1.22,1c-.14.13-.27.26-.4.4a.73.73,0,0,0-.17.18c-.12.12-.23.24-.34.37a7.18,7.18,0,0,0-.54.67l-.06.09-.25.36a.77.77,0,0,0-.09.13s-.06.1-.09.15a.6.6,0,0,0-.09.15h0a2.39,2.39,0,0,0-.13.21,6,6,0,0,0-.37.71l-.06.12q-.2.43-.36.9c-1.19,3.41-.79,6.8.35,8.53,1.8,2.73,2.85,4.12,6.21,4.3C61.93,59.86,65.7,57.52,64.64,52.25Zm-3.35,3.5a2.94,2.94,0,0,1-2.23,1H58.9c-1.88-.1-2.2-.43-3.87-2.95-.56-.85-.94-3.24,0-5.9a8.23,8.23,0,0,1,2.35-3.41,10.56,10.56,0,0,0,2.43,4.88,8.75,8.75,0,0,1,1.91,3.53A3.42,3.42,0,0,1,61.29,55.75Zm3.35-3.5c-.87-4.33-4.89-6-4.27-9.45.51-2.88,3.75-4,3.51-4.39,0,0,0,0,0,0l-.08,0a2.93,2.93,0,0,0-1.1.09l-.15,0-.17,0-.32.08a6,6,0,0,0-.7.21,1.66,1.66,0,0,0-.29.1l-.1,0-.11,0-.26.1-.41.16-.62.27c-.36.16-.72.34-1.09.54l-.44.24-.44.27c-.22.13-.44.28-.66.43l-.54.39a13,13,0,0,0-1.22,1c-.14.13-.27.26-.4.4a.73.73,0,0,0-.17.18c-.12.12-.23.24-.34.37a7.18,7.18,0,0,0-.54.67l-.06.09-.25.36a.77.77,0,0,0-.09.13s-.06.1-.09.15a.6.6,0,0,0-.09.15h0a2.39,2.39,0,0,0-.13.21,6,6,0,0,0-.37.71l-.06.12q-.2.43-.36.9c-1.19,3.41-.79,6.8.35,8.53,1.8,2.73,2.85,4.12,6.21,4.3C61.93,59.86,65.7,57.52,64.64,52.25Zm-3.35,3.5a2.94,2.94,0,0,1-2.23,1H58.9c-1.88-.1-2.2-.43-3.87-2.95-.56-.85-.94-3.24,0-5.9a8.23,8.23,0,0,1,2.35-3.41,10.56,10.56,0,0,0,2.43,4.88,8.75,8.75,0,0,1,1.91,3.53A3.42,3.42,0,0,1,61.29,55.75Zm3.35-3.5c-.87-4.33-4.89-6-4.27-9.45.51-2.88,3.75-4,3.51-4.39,0,0,0,0,0,0l-.08,0a2.93,2.93,0,0,0-1.1.09l-.15,0-.17,0-.32.08a6,6,0,0,0-.7.21,1.66,1.66,0,0,0-.29.1l-.1,0-.11,0-.26.1-.41.16-.62.27c-.36.16-.72.34-1.09.54l-.44.24-.44.27c-.22.13-.44.28-.66.43l-.54.39a13,13,0,0,0-1.22,1c-.14.13-.27.26-.4.4a.73.73,0,0,0-.17.18c-.12.12-.23.24-.34.37a7.18,7.18,0,0,0-.54.67l-.06.09-.25.36a.77.77,0,0,0-.09.13s-.06.1-.09.15a.6.6,0,0,0-.09.15h0a2.39,2.39,0,0,0-.13.21,6,6,0,0,0-.37.71l-.06.12q-.2.43-.36.9c-1.19,3.41-.79,6.8.35,8.53,1.8,2.73,2.85,4.12,6.21,4.3C61.93,59.86,65.7,57.52,64.64,52.25Zm-3.35,3.5a2.94,2.94,0,0,1-2.23,1H58.9c-1.88-.1-2.2-.43-3.87-2.95-.56-.85-.94-3.24,0-5.9a8.23,8.23,0,0,1,2.35-3.41,10.56,10.56,0,0,0,2.43,4.88,8.75,8.75,0,0,1,1.91,3.53A3.42,3.42,0,0,1,61.29,55.75Zm3.35-3.5c-.87-4.33-4.89-6-4.27-9.45.51-2.88,3.75-4,3.51-4.39,0,0,0,0,0,0l-.08,0a2.93,2.93,0,0,0-1.1.09l-.15,0-.17,0-.32.08a6,6,0,0,0-.7.21,1.66,1.66,0,0,0-.29.1l-.1,0-.11,0-.26.1-.41.16-.62.27c-.36.16-.72.34-1.09.54l-.44.24-.44.27c-.22.13-.44.28-.66.43l-.54.39a13,13,0,0,0-1.22,1c-.14.13-.27.26-.4.4a.73.73,0,0,0-.17.18c-.12.12-.23.24-.34.37a7.18,7.18,0,0,0-.54.67l-.06.09-.25.36a.77.77,0,0,0-.09.13s-.06.1-.09.15a.6.6,0,0,0-.09.15h0a2.39,2.39,0,0,0-.13.21,6,6,0,0,0-.37.71l-.06.12q-.2.43-.36.9c-1.19,3.41-.79,6.8.35,8.53,1.8,2.73,2.85,4.12,6.21,4.3C61.93,59.86,65.7,57.52,64.64,52.25Zm-3.35,3.5a2.94,2.94,0,0,1-2.23,1H58.9c-1.88-.1-2.2-.43-3.87-2.95-.56-.85-.94-3.24,0-5.9a8.23,8.23,0,0,1,2.35-3.41,10.56,10.56,0,0,0,2.43,4.88,8.75,8.75,0,0,1,1.91,3.53A3.42,3.42,0,0,1,61.29,55.75Z"/><path class="cls-2" d="M52.18,46.86c-1.19,3.41-.79,6.8.35,8.53,1.8,2.73,2.85,4.12,6.21,4.3,3.19.17,7-2.17,5.9-7.44-.87-4.33-4.89-6-4.27-9.45.51-2.88,3.75-4,3.51-4.39C63.5,37.85,54.54,40,52.18,46.86Z"/><path class="cls-1" d="M63.48,8c.06.3-2.57.53-3.87,2.57-1.54,2.44.73,4.48-.06,7.86a6.66,6.66,0,0,1-1.39,2.86,4.94,4.94,0,0,1-1.94,1.38,4.44,4.44,0,0,1-1.3.33l-.39,0h-.09a4.41,4.41,0,0,1-.52,0,2.7,2.7,0,0,1-.41-.08h0l-.08,0h0l-.07,0h0a1.66,1.66,0,0,1-.21-.06H53c-2.28-.79-2.57-2-2.94-4.41a5.24,5.24,0,0,1,.16-2A11.56,11.56,0,0,1,52.59,12c.18-.21.36-.41.55-.6h0a7.69,7.69,0,0,1,.67-.62h0a8.8,8.8,0,0,1,.79-.61l.17-.12a12.6,12.6,0,0,1,2.82-1.41,17.35,17.35,0,0,1,1.91-.54,13.42,13.42,0,0,1,2.63-.29C63,7.76,63.46,7.87,63.48,8Z"/></svg>