<svg xmlns="http://www.w3.org/2000/svg" viewBox="0 0 820 520"><defs><style>.a{fill:#81a63f;}.b{fill:#3d3b36;}</style></defs><path class="a" d="M500.36,139.35,407.52,46.51,395.2,34.19,382.88,46.51,290,139.35a25.52,25.52,0,0,0,0,36.05l87.14,87.14a25.51,25.51,0,0,0,36.05,0l87.13-87.14a25.48,25.48,0,0,0,0-36.05Zm-80.52,82.08-14.79-14.78,14.79-14.78,14.78,14.78Zm-64.06-14.78,14.78-14.78,14.78,14.78-14.78,14.78ZM380.42,182l14.78-14.78L410,182,395.2,196.79Zm64.05,14.78L355.78,108.1,395.2,68.68l88.69,88.69Zm-59.13-39.42-39.42,39.42-39.41-39.42L345.92,118Zm9.86,59.13L410,231.28,395.2,246.07l-14.78-14.79Z"/><path class="b" d="M35.23,368.25V347.07h94.14v21.18H92.8V479H71.45V368.25Z"/><path class="b" d="M175.56,479V347.07H266.7v21.8H196.83v34H237.7v21.18H196.83v34.19H266.7V479Z"/><path class="b" d="M319.14,479.35V347.42h21.27l56,93.08V347.25h22.33v132.1H396.39l-56-93.25v93.25Z"/><path class="b" d="M471.07,385.22v-.71q0-12.21,3.69-19.6a31.52,31.52,0,0,1,9-11.38,28.16,28.16,0,0,1,11.16-5.23,51.58,51.58,0,0,1,10.5-1.23h52.38v21.18H506.93a14.66,14.66,0,0,0-7.21,2.2,15.67,15.67,0,0,0-5,4.92q-2.24,3.35-2.24,9.49,0,6.33,2.24,9.72a18.69,18.69,0,0,0,5,5.23,18.42,18.42,0,0,0,7.38,2.55h20.83a52.73,52.73,0,0,1,10.46,1.23,28.4,28.4,0,0,1,11.21,5.09,29.77,29.77,0,0,1,8.79,11.25q3.55,7.4,3.82,19.87v.7q-.18,12.21-3.87,19.78A32.9,32.9,0,0,1,549.42,472a29.07,29.07,0,0,1-11.16,5.59,45.3,45.3,0,0,1-10.5,1.45H475.37V458.08l51,.17a19.27,19.27,0,0,0,7.21-2.81,20.47,20.47,0,0,0,5-5.54q2.25-3.51,2.24-9.75c0-4.22-.74-7.44-2.24-9.67a13.78,13.78,0,0,0-5-4.75,17.25,17.25,0,0,0-7-2H505.61A49.27,49.27,0,0,1,495,422.39a27.82,27.82,0,0,1-11.25-5.49,32.86,32.86,0,0,1-9-11.73Q471.07,397.61,471.07,385.22Z"/><path class="b" d="M616.05,479.17V347.07h21.27v132.1Z"/><path class="b" d="M693.8,479V347.07h21.27V458.52h69.7V479Z"/></svg>