<svg xmlns="http://www.w3.org/2000/svg" viewBox="0 0 1100 280"><defs><style>.a{fill:#81a63f;}.b{fill:#3d3b36;}</style></defs><path class="a" d="M253.17,132.42,160.32,39.58,148,27.26,135.69,39.58,42.84,132.42a25.54,25.54,0,0,0,0,36.05L130,255.6a25.48,25.48,0,0,0,36.05,0l87.14-87.13a25.51,25.51,0,0,0,0-36.05ZM172.64,214.5l-14.78-14.79,14.78-14.78,14.78,14.78Zm-64.06-14.79,14.78-14.78,14.79,14.78L123.36,214.5Zm24.64-24.63L148,160.29l14.78,14.79L148,189.86Zm64.06,14.78-88.7-88.69L148,61.75l88.69,88.69Zm-59.13-39.42L98.73,189.86,59.31,150.44,98.73,111ZM148,209.57l14.78,14.78L148,239.13l-14.78-14.78Z"/><path class="b" d="M315.08,100.21V79h94.13v21.18H372.65V211H351.29V100.21Z"/><path class="b" d="M455.4,211V79h91.15v21.79H476.67v34h40.87V156H476.67v34.19h69.88V211Z"/><path class="b" d="M599,211.3V79.38h21.27l56,93.07V79.2h22.32V211.3H676.24l-56-93.25V211.3Z"/><path class="b" d="M750.91,117.17v-.7q0-12.23,3.69-19.6a31.44,31.44,0,0,1,9-11.38,28.08,28.08,0,0,1,11.16-5.23A51.59,51.59,0,0,1,785.28,79h52.38v21.18H786.77a14.76,14.76,0,0,0-7.21,2.19,15.58,15.58,0,0,0-5,4.93c-1.5,2.22-2.24,5.39-2.24,9.49s.74,7.46,2.24,9.71a18.53,18.53,0,0,0,5,5.23,18.11,18.11,0,0,0,7.39,2.55h20.83a52.73,52.73,0,0,1,10.45,1.23,28.28,28.28,0,0,1,11.21,5.1,29.58,29.58,0,0,1,8.79,11.25q3.56,7.38,3.82,19.86v.7q-.18,12.23-3.86,19.78a33.16,33.16,0,0,1-8.93,11.69,29,29,0,0,1-11.16,5.58A44.63,44.63,0,0,1,807.6,211H755.22V190l51,.18a19.44,19.44,0,0,0,7.21-2.81,20.64,20.64,0,0,0,5-5.54c1.49-2.34,2.24-5.6,2.24-9.76s-.75-7.44-2.24-9.67a13.85,13.85,0,0,0-5-4.74,17.06,17.06,0,0,0-7-2H785.45a49.35,49.35,0,0,1-10.59-1.32,28.07,28.07,0,0,1-11.25-5.49,33,33,0,0,1-9-11.74Q750.91,129.56,750.91,117.17Z"/><path class="b" d="M895.89,211.13V79h21.27v132.1Z"/><path class="b" d="M973.64,211V79h21.27V190.47h69.7V211Z"/></svg>